<svg id="svg" version="1.1" xmlns="http://www.w3.org/2000/svg" xmlns:xlink="http://www.w3.org/1999/xlink" width="400" height="108.01033591731266" viewBox="0, 0, 400,108.01033591731266"><g id="svgg"><path id="path0" d="M188.114 8.723 C 174.233 10.463,165.644 18.967,164.179 32.422 C 162.374 48.993,172.889 61.396,189.703 62.529 C 205.245 63.577,216.654 54.850,218.703 40.348 C 218.962 38.514,219.302 32.935,219.170 32.687 C 219.132 32.616,213.020 32.558,205.588 32.558 L 192.076 32.558 192.076 37.812 L 192.076 43.066 197.522 43.066 L 202.968 43.066 202.850 43.848 C 201.462 53.106,187.595 54.792,181.653 46.425 C 175.839 38.239,178.330 24.734,186.332 21.054 C 192.229 18.343,199.429 20.779,202.383 26.486 C 202.787 27.267,203.172 27.908,203.239 27.910 C 203.616 27.921,216.191 22.791,216.192 22.626 C 216.193 22.517,215.922 21.948,215.591 21.363 C 211.903 14.838,206.341 10.776,198.947 9.206 C 196.862 8.763,190.172 8.465,188.114 8.723 M6.374 35.573 L 6.374 60.982 13.350 60.982 L 20.325 60.982 20.369 45.435 L 20.413 29.888 31.928 45.435 L 43.442 60.982 50.403 60.982 L 57.364 60.982 57.364 35.573 L 57.364 10.164 50.389 10.164 L 43.413 10.164 43.369 25.711 L 43.325 41.258 31.789 25.711 L 20.252 10.164 13.313 10.164 L 6.374 10.164 6.374 35.573 M73.844 10.278 C 73.781 10.342,73.730 21.776,73.730 35.688 L 73.730 60.982 90.698 60.982 L 107.666 60.982 107.666 55.383 L 107.666 49.785 97.674 49.785 L 87.683 49.785 87.683 45.392 L 87.683 40.999 97.244 40.999 L 106.804 40.999 106.804 35.401 L 106.804 29.802 97.241 29.802 L 87.677 29.802 87.723 25.624 L 87.769 21.447 97.717 21.403 L 107.666 21.358 107.666 15.761 L 107.666 10.164 90.813 10.164 C 81.543 10.164,73.908 10.215,73.844 10.278 M117.140 15.762 L 117.140 21.361 123.859 21.361 L 130.577 21.361 130.577 41.171 L 130.577 60.982 137.639 60.982 L 144.701 60.982 144.745 41.214 L 144.789 21.447 151.464 21.402 L 158.140 21.357 158.140 15.760 L 158.140 10.164 137.640 10.164 L 117.140 10.164 117.140 15.762 M231.467 10.278 C 231.404 10.342,231.352 21.776,231.352 35.688 L 231.352 60.982 248.320 60.982 L 265.289 60.982 265.289 55.383 L 265.289 49.785 255.297 49.785 L 245.306 49.785 245.306 45.392 L 245.306 40.999 254.866 40.999 L 264.427 40.999 264.427 35.401 L 264.427 29.802 254.863 29.802 L 245.300 29.802 245.346 25.624 L 245.392 21.447 255.340 21.403 L 265.289 21.358 265.289 15.761 L 265.289 10.164 248.435 10.164 C 239.166 10.164,231.530 10.215,231.467 10.278 M283.057 35.480 C 277.927 49.405,273.730 60.841,273.730 60.892 C 273.730 60.944,276.964 60.965,280.916 60.941 L 288.103 60.896 289.584 56.331 L 291.066 51.766 300.365 51.721 L 309.665 51.677 311.200 56.329 L 312.735 60.982 319.930 60.982 L 327.124 60.982 326.661 59.733 C 326.406 59.046,322.201 47.631,317.316 34.367 L 308.435 10.250 300.410 10.205 L 292.385 10.160 283.057 35.480 M335.874 10.264 C 335.803 10.335,335.745 21.776,335.745 35.688 L 335.745 60.982 342.722 60.982 L 349.699 60.982 349.699 51.238 L 349.699 41.494 350.247 41.548 C 350.767 41.599,351.108 42.084,357.086 51.292 L 363.378 60.982 371.798 60.982 C 376.472 60.982,380.193 60.916,380.161 60.833 C 380.129 60.751,376.615 56.139,372.352 50.584 C 368.088 45.029,364.577 40.415,364.549 40.331 C 364.521 40.247,365.045 40.045,365.713 39.881 C 372.082 38.320,375.965 32.925,375.943 25.668 C 375.917 17.288,371.342 12.258,362.201 10.556 C 360.684 10.274,336.137 10.002,335.874 10.264 M386.391 10.403 C 379.029 12.040,380.489 22.708,388.028 22.355 C 395.377 22.010,396.121 11.687,388.893 10.351 C 387.692 10.129,387.616 10.131,386.391 10.403 M389.961 11.859 C 394.766 14.331,393.153 21.254,387.769 21.265 C 383.110 21.274,380.917 15.757,384.351 12.669 C 385.851 11.321,388.243 10.975,389.961 11.859 M385.357 16.279 L 385.357 19.638 386.219 19.638 L 387.080 19.638 387.080 18.247 C 387.080 16.433,387.409 16.437,388.211 18.260 L 388.778 19.552 389.738 19.604 C 390.881 19.665,390.880 19.669,390.075 18.041 L 389.453 16.783 390.075 16.161 C 391.810 14.426,390.502 12.920,387.261 12.920 L 385.357 12.920 385.357 16.279 M388.430 14.228 C 389.320 14.852,388.393 16.191,387.348 15.790 C 387.075 15.685,386.952 14.311,387.195 14.068 C 387.399 13.865,388.026 13.946,388.430 14.228 M356.519 20.513 C 360.341 21.044,362.102 22.965,362.102 26.602 C 362.102 31.244,359.626 32.903,352.698 32.903 L 349.699 32.903 349.699 26.615 L 349.699 20.327 352.442 20.327 C 353.951 20.327,355.786 20.411,356.519 20.513 M300.751 24.332 C 300.848 24.640,302.139 28.601,303.621 33.133 C 305.103 37.665,306.282 41.407,306.242 41.447 C 306.201 41.487,303.535 41.500,300.316 41.475 L 294.463 41.430 297.268 32.828 C 298.811 28.097,300.113 24.124,300.161 23.999 C 300.311 23.606,300.570 23.752,300.751 24.332 M76.546 78.108 C 73.165 78.928,71.404 81.028,71.404 84.238 C 71.404 87.619,72.541 88.864,77.051 90.419 C 80.195 91.503,80.871 91.993,80.871 93.186 C 80.871 95.841,76.869 96.240,74.154 93.856 L 73.532 93.310 71.886 94.956 C 70.036 96.805,70.047 96.687,71.629 97.739 C 77.509 101.648,85.514 99.217,85.913 93.401 C 86.150 89.940,84.747 88.247,80.377 86.724 C 77.009 85.550,76.537 85.253,76.385 84.210 C 76.038 81.825,80.054 81.142,82.385 83.189 L 82.995 83.725 84.562 82.043 L 86.130 80.362 85.571 79.880 C 83.614 78.190,79.520 77.387,76.546 78.108 M192.937 78.138 C 189.602 79.024,187.871 81.104,187.861 84.238 C 187.850 87.503,189.219 89.002,193.454 90.360 C 196.100 91.209,197.416 92.129,197.416 93.128 C 197.416 95.728,193.653 96.241,190.848 94.024 L 189.966 93.326 188.311 94.981 L 186.657 96.636 187.256 97.155 C 190.092 99.610,195.646 100.316,198.927 98.638 C 201.319 97.415,202.326 95.677,202.326 92.768 C 202.326 89.446,201.166 88.202,196.597 86.627 C 193.935 85.709,193.328 85.380,192.990 84.672 C 191.796 82.167,196.375 80.953,198.790 83.134 L 199.421 83.705 200.620 82.464 C 201.279 81.782,202.002 81.012,202.227 80.754 L 202.635 80.286 202.222 79.942 C 200.092 78.169,195.892 77.353,192.937 78.138 M222.261 78.197 C 219.070 79.110,217.397 81.244,217.400 84.398 C 217.404 87.513,218.724 88.899,223.132 90.419 C 226.332 91.523,226.873 91.938,226.873 93.292 C 226.873 95.823,222.646 96.193,220.233 93.873 C 219.510 93.177,219.534 93.166,217.821 95.028 L 216.294 96.688 216.976 97.271 C 222.580 102.058,231.940 99.296,231.952 92.851 C 231.958 89.491,230.648 88.159,225.656 86.456 C 223.166 85.606,222.394 85.030,222.394 84.020 C 222.394 81.730,226.460 81.254,228.599 83.295 L 229.032 83.708 230.630 81.998 L 232.227 80.287 231.488 79.743 C 229.130 78.005,225.224 77.350,222.261 78.197 M6.374 88.717 L 6.374 99.053 11.326 99.050 C 16.715 99.046,17.870 98.914,19.439 98.119 C 23.645 95.987,23.632 90.049,19.417 88.513 C 18.532 88.190,18.441 88.118,18.763 87.999 C 22.414 86.648,22.773 81.239,19.337 79.368 C 17.704 78.480,16.910 78.381,11.419 78.381 L 6.374 78.381 6.374 88.717 M37.898 85.367 C 37.898 93.202,37.979 93.941,39.030 95.720 C 42.187 101.068,51.930 100.878,54.706 95.414 C 55.607 93.640,55.637 93.322,55.640 85.573 L 55.642 78.381 53.144 78.381 L 50.646 78.381 50.646 85.023 C 50.646 94.043,50.245 95.083,46.770 95.083 C 43.304 95.083,42.894 94.015,42.894 84.982 L 42.894 78.381 40.396 78.381 L 37.898 78.381 37.898 85.367 M101.464 88.717 L 101.464 99.053 104.048 99.053 L 106.632 99.053 106.632 88.717 L 106.632 78.381 104.048 78.381 L 101.464 78.381 101.464 88.717 M122.997 88.717 L 122.997 99.053 125.452 99.053 L 127.907 99.053 127.853 93.325 C 127.823 90.174,127.823 87.137,127.853 86.575 L 127.907 85.553 132.041 92.297 L 136.176 99.042 139.061 99.047 L 141.947 99.053 141.947 88.717 L 141.947 78.381 139.535 78.381 L 137.123 78.381 137.123 85.131 L 137.123 91.881 132.978 85.131 L 128.832 78.381 125.915 78.381 L 122.997 78.381 122.997 88.717 M158.484 88.717 L 158.484 99.053 165.719 99.053 L 172.954 99.053 172.954 96.899 L 172.954 94.746 168.131 94.746 L 163.307 94.746 163.307 92.593 L 163.307 90.439 167.614 90.439 L 171.921 90.439 171.921 88.458 L 171.921 86.477 167.614 86.477 L 163.307 86.477 163.307 84.496 L 163.307 82.515 167.873 82.515 L 172.438 82.515 172.438 80.448 L 172.438 78.381 165.461 78.381 L 158.484 78.381 158.484 88.717 M15.567 82.580 C 17.292 83.301,17.305 85.373,15.590 86.265 C 15.220 86.457,14.536 86.538,13.178 86.548 L 11.283 86.563 11.235 84.453 L 11.187 82.343 13.092 82.343 C 14.322 82.343,15.200 82.427,15.567 82.580 M15.784 90.522 C 17.030 90.892,17.485 91.447,17.485 92.595 C 17.485 94.363,16.399 94.981,13.264 94.995 L 11.283 95.004 11.235 92.636 L 11.188 90.267 13.056 90.267 C 14.205 90.267,15.255 90.365,15.784 90.522 " stroke="none" fill="#000000" fill-rule="evenodd"></path></g></svg>